<svg width="177" height="209" xmlns="http://www.w3.org/2000/svg" xmlns:xlink="http://www.w3.org/1999/xlink" overflow="hidden"><defs><clipPath id="clip0"><rect x="410" y="228" width="177" height="209"/></clipPath><clipPath id="clip1"><rect x="451" y="245" width="96" height="96"/></clipPath><clipPath id="clip2"><rect x="451" y="245" width="96" height="96"/></clipPath><clipPath id="clip3"><rect x="451" y="245" width="96" height="96"/></clipPath></defs><g clip-path="url(#clip0)" transform="translate(-410 -228)"><path d="M414 316C414 269.056 451.832 231 498.5 231 545.168 231 583 269.056 583 316 583 362.944 545.168 401 498.5 401 451.832 401 414 362.944 414 316Z" stroke="#2D848A" stroke-width="6" stroke-miterlimit="8" fill="none" fill-rule="evenodd"/><g clip-path="url(#clip1)"><g clip-path="url(#clip2)"><g clip-path="url(#clip3)"><path d="M499 289C494 289 490 285 490 280 490 275 494 271 499 271 504 271 508 275 508 280 508 285 504 289 499 289ZM499 259C492.1 259 485.6 262.4 481.7 268.2 477.8 273.9 477 281.2 479.5 287.7L489 308.7 497.2 325.9C497.5 326.6 498.2 327 499 327 499.8 327 500.5 326.6 500.8 325.9L509 308.7 518.5 287.7C521 281.2 520.2 273.9 516.3 268.2 512.4 262.4 505.9 259 499 259Z" fill="#3587A4"/></g></g></g><text fill="#FF7F11" font-family="Calibri,Calibri_MSFontService,sans-serif" font-weight="400" font-size="80" transform="translate(472.798 367)">U</text></g></svg>